<svg id="레이어_1" data-name="레이어 1" xmlns="http://www.w3.org/2000/svg" viewBox="0 0 748.77 635.25"><defs><style>.cls-1{fill:#397297;}.cls-2{fill:#608dab;}</style></defs><path class="cls-1" d="M638.42,569.7C621.09,551,609.06,530,609.86,503.55c1-34,16.1-60.05,45.12-77.72,14.33-8.73,30.24-12.29,47-12.28q98.73,0,197.46,0c51.6,0,94.7-19.48,128.93-57.73,21.48-24,34.46-52.43,39.45-84.45,3.48-22.38,1.38-44.85,1.82-67.27.5-25.12.16-50.25.06-75.38a12.13,12.13,0,0,1,3.28-8.94q25.35-28.1,50.33-56.54a7.73,7.73,0,0,1,6.44-2.86q112.23.11,224.46,0c4.09,0,4.51,1.44,4.35,4.91-1.29,29.17-24.2,56.16-53.43,63.35-14.07,3.46-28.3,2.32-42.47,2.43-31.44.23-62.88,0-94.31-.11-3.92,0-7.84,0-12.15,0,5.88,7.41,11.81,14.47,17.29,21.86a340.07,340.07,0,0,1,66.87,222.64,333,333,0,0,1-30.81,122.65,341.41,341.41,0,0,1-80.32,109.12,321.9,321.9,0,0,1-70.82,49.44c-.88.45-1.83.75-2.74,1.12.25-2.13-.83-3.85-1.72-5.63a141.51,141.51,0,0,0-53.22-58.34,158.13,158.13,0,0,0-83.5-24c-90.6-.69-181.21-.25-271.82-.24C643.08,569.52,640.75,569.64,638.42,569.7Zm126-91.16a17.73,17.73,0,0,0-17.79,17.55c0,10.29,7.41,18.12,17.5,18.39,9.69.26,18.73-8.34,18.22-18.34C781.83,486.85,775.46,478.89,764.37,478.54Z" transform="translate(-609.82 -60.35)"/><path class="cls-2" d="M638.42,569.7c2.33-.06,4.66-.18,7-.18,90.61,0,181.22-.45,271.82.24a158.13,158.13,0,0,1,83.5,24A141.51,141.51,0,0,1,1054,652.13c.89,1.78,2,3.5,1.72,5.63-15.37,8.6-31.71,15-48.39,20.42a340.16,340.16,0,0,1-61.45,14,360.17,360.17,0,0,1-70.1,1.75,313.58,313.58,0,0,1-60.22-9.82,341.81,341.81,0,0,1-86.75-36.29c-30.18-17.85-56.64-40.06-80.28-65.79C644.9,578.1,641.76,573.8,638.42,569.7Z" transform="translate(-609.82 -60.35)"/><path class="cls-2" d="M925.3,60.54c42.4,0,84.79.06,127.18-.1,4.32,0,5.59.75,5.3,5.42-1.94,31.8-28.24,59.86-60.21,64.09a123.17,123.17,0,0,1-16.38,1q-57.71,0-115.4,0c-24.67,0-44.83-9.35-59.72-29.2-8.16-10.88-12-23.46-13.39-36.88-.38-3.64,1-4.35,4.45-4.34q64.1.18,128.17.08Z" transform="translate(-609.82 -60.35)"/><path class="cls-2" d="M1097,694.79c7.71-8.53,14.79-16.41,21.92-24.25,13.17-14.48,26.4-28.9,39.53-43.42a7.28,7.28,0,0,1,6-2.69c23.31.11,46.62.16,69.93,0,3.91,0,4.7,1.19,4.5,4.84-1.83,33.12-29.31,62.21-62.39,65.14-25.72,2.28-51.54.57-77.32.84A14.81,14.81,0,0,1,1097,694.79Z" transform="translate(-609.82 -60.35)"/><path class="cls-2" d="M782,272.6a14.33,14.33,0,0,1-4,10.21c-4.35,4.75-8.58,9.64-13.82,13.49-4.7-4.47-9.65-8.72-13.6-13.88-6.3-8.26-4.87-19.08,3.1-25.21,7.67-5.91,18.51-4.37,24.87,3.52C781.12,264,782,267.8,782,272.6Z" transform="translate(-609.82 -60.35)"/></svg>